<?xml version="1.0" encoding="utf-8"?>
<!-- Generator: Adobe Illustrator 18.1.1, SVG Export Plug-In . SVG Version: 6.00 Build 0)  -->
<svg version="1.1" id="Layer_1" xmlns="http://www.w3.org/2000/svg" xmlns:xlink="http://www.w3.org/1999/xlink" x="0px" y="0px"
	 viewBox="8.3 22.1 124.7 96.4" style="enable-background:new 8.3 22.1 124.7 96.4;" xml:space="preserve">
<style type="text/css">
	.st0{fill:#0060A9;}
</style>
<g>
	<path class="st0" d="M93.6,59.9c0.4,0.1,0.9,0.3,1.4,0.4c2.3,0.1,4.6-1.6,4.6-4c0,2.4,2,4,4.4,4c2.6,0,4.1-1.6,4.1-4
		c0,2.1,1.6,3.4,3.6,3.9v-9h-8.9v-5.3h7.3v-8.3h-7.3v-4.4h8.1V25H93.6V59.9L93.6,59.9z"/>
	<path class="st0" d="M87.6,70.3v26.3H105v-8.3h-8.1V83h7.4v-8.3H97v-4.4h8.1V63c-0.4,0.1-0.7,0.1-1.1,0.1c-1.7,0-3.3-0.7-4.4-1.7
		c-1.1,1-2.3,1.7-4,1.7s-3.6-0.7-4.7-1.7c-1.1,1-2.4,1.7-4.1,1.7s-3.3-0.7-4.4-1.7c-1.1,1-2.7,1.9-4.4,1.9c-1.7,0-3.1-0.9-4.4-1.9
		c-1.1,1-2.4,1.7-4.1,1.7s-3.3-0.7-4.4-1.7c-1.1,1-2.7,1.9-4.4,1.9c-1.7,0-3.1-0.9-4.4-1.9c-0.9,0.7-1.7,1-2.9,1.4L45,96.3h9.7
		l0.7-4.4h6.3l0.7,4.4h9.7L66.6,70H73v26.3h9.4v-26H87.6L87.6,70.3z M56.4,84.7l2.1-10.1l1.9,10.1H56.4L56.4,84.7z"/>
	<path class="st0" d="M34.1,63.6c-1.7,0-3.1-0.7-4.3-1.7c-1.1,1-2.6,1.4-4.1,1.6l-2.4,15.9c-0.3-2.6-3.7-17.4-3.7-17.4h-9.4
		l7.7,34.9H27l2.9-18.4c0.3,2.4,3.6,18.4,3.6,18.4H43l8.1-33c-1.4-0.3-2.7-0.7-3.7-1.6c-1.1,1-2.7,1.6-4.4,1.6
		c-0.9,0-1.7-0.4-2.3-0.9L37,79.3C36.4,76.7,34.1,63.6,34.1,63.6L34.1,63.6z"/>
	<path class="st0" d="M116.3,61.9c-1,1-3,1.7-4.1,1.7c-1.9,0-2.7-0.7-3.9-1.7c-0.3,0.6-0.7,1-1.3,1.1v33.9h9.4V82.3l5,14.3h10.1
		l-7-14.6c3.7-1.4,5.4-4.9,5.4-8.7C130,64.1,124.4,61.9,116.3,61.9L116.3,61.9z M116.2,78.2V70c2.6-0.1,4.4,1.1,4.4,4
		c0,2.1-1.3,4.3-3.7,4.3L116.2,78.2L116.2,78.2z"/>
	<path class="st0" d="M36.3,38.1v-5.7h0.1c1.9,0,3.3,0.9,3.3,2.9c0,2.1-1.7,2.9-3.7,2.9H36.3L36.3,38.1z M36.3,52.7v-6.4l0,0
		c2.1,0,3.9,0.9,3.9,3.1C40.3,51.7,38.4,52.7,36.3,52.7L36.3,52.7L36.3,52.7z M51.9,50.7c-0.1-4.7-4-7.7-8.7-8.1v-0.1
		c4,0,6.6-3,6.6-7c0-7.6-6.4-10.4-12-10.4H26.6v35.4c1.4-0.7,3-2.3,3-4c0,2.4,2,3.9,4.3,3.9c2.4,0,4.3-1.4,4.3-3.9
		c0,2.4,2,3.9,4.3,3.9c2.4,0,4.3-1.4,4.3-3.9c0,2.4,2,3.9,4.3,3.9c2.4,0,4.3-1.4,4.3-3.9c0,2.4,2,3.9,4.3,3.9c2.4,0,4.3-1.4,4.3-3.9
		c0,2.4,2,3.9,4.3,3.9c2.4,0,4.3-1.4,4.3-3.9c0,2.4,2,3.9,4.3,3.9c2.4,0,4.3-1.4,4.3-3.9c0,2.4,2,3.9,4.3,3.9c2.4,0,4.3-1.4,4.3-3.9
		c0,1.1,0.4,1.9,1,2.6V25.1h-9.4v22c0,0.9,0,2.1-0.3,3c-0.3,0.9-0.9,1.7-2.1,1.7s-1.9-0.7-2.1-1.7c-0.3-0.9-0.3-2.1-0.3-3v-22h-9.4
		v22.7c0,1.1,0,2.4,0.3,3.9h-6.9V25.1h-9.4C51.9,25.1,51.9,51.6,51.9,50.7L51.9,50.7z"/>
	<g>
		<path class="st0" d="M26.6,116c1.1,0.4,2.3,0.7,3.6,0.7c3.3,0,5.6-2.4,5.6-5.6c0-1.3-0.3-2.1-0.9-2.9s-1.3-1.3-2.3-2
			c-0.3-0.1-0.6-0.4-0.9-0.7c-0.3-0.3-0.4-0.6-0.4-0.9c0-0.6,0.7-1,1.3-1c1.1,0,2.1,1,2.7,1.7v-5c-1-0.6-2.1-0.9-3.3-0.9
			c-4,0-5.3,3.6-5.3,5.4c0,1.1,0.4,2.1,1,2.9c0.6,0.9,1.4,1.4,2.3,2.1c0.3,0.1,0.6,0.4,0.7,0.6c0.3,0.3,0.4,0.6,0.4,0.9
			c0,0.7-0.7,1.1-1.4,1.1c-1.1,0-2.3-0.9-3-1.9v5.3H26.6z"/>
		<polygon class="st0" points="48,116.3 48,99.9 43.3,99.9 43.3,105.7 41,105.7 41,99.9 36.3,99.9 36.3,116.3 41,116.3 41,109.6 
			43.3,109.6 43.3,116.3 		"/>
		<polygon class="st0" points="54,116.3 54,99.9 49.3,99.9 49.3,116.3 		"/>
		<path class="st0" d="M60,116.3v-5.4c4.1,0.1,6.9-1.1,6.9-5.4c0-4.3-3.1-5.6-7.3-5.6h-4.3v16.4L60,116.3L60,116.3z M62.1,105.4
			c0,1.3-0.9,1.9-2.1,1.9v-3.9h0.3C61.6,103.4,62.1,104.3,62.1,105.4L62.1,105.4z"/>
		<path class="st0" d="M72.3,116.3v-5.4c4.1,0.1,6.9-1.1,6.9-5.4c0-4.3-3.1-5.6-7.3-5.6h-4.3v16.4L72.3,116.3L72.3,116.3z
			 M74.3,105.4c0,1.3-0.9,1.9-2.1,1.9v-3.9h0.3C73.7,103.4,74.3,104.3,74.3,105.4L74.3,105.4z"/>
		<polygon class="st0" points="84.4,116.3 84.4,99.9 79.7,99.9 79.7,116.3 		"/>
		<path class="st0" d="M85.7,116.3h4.6v-4.9c0-1.6-0.1-3.1-0.3-4.6l0,0l3.4,9.6H98V99.9h-4.6v4.1c0,1.9,0.3,3.7,0.6,5.7l0,0l-3.7-10
			h-4.6V116.3L85.7,116.3z"/>
		<path class="st0" d="M105.3,106.7v3.4h1.7c0,1-0.4,2.4-1.6,2.4c-1.9,0-1.7-2.9-1.9-4c0-1.3-0.1-5,2-5c0.9,0,1.3,1,1.3,1.7l4.6-1.6
			c-1-2.4-3.1-4-5.9-4c-5.1,0-6.7,4.6-6.7,8.6c0,4.1,1.7,8.4,6.7,8.4c5.4,0,6.3-5,6.3-9.1v-0.7h-6.6V106.7z"/>
	</g>
</g>
</svg>
